<?xml version="1.0" standalone="no"?><!DOCTYPE svg PUBLIC "-//W3C//DTD SVG 1.1//EN" "http://www.w3.org/Graphics/SVG/1.1/DTD/svg11.dtd"><svg t="1753078905256" class="icon" viewBox="0 0 1024 1024" version="1.1" xmlns="http://www.w3.org/2000/svg" p-id="47449" xmlns:xlink="http://www.w3.org/1999/xlink" width="200" height="200"><path d="M541.93633491 588.82630069s38.94339392 55.05570745 35.39665731 85.43037648c-2.08562197 23.38253297-7.1806664 63.82003255-24.08716636 106.65422994-10.39747317 26.29533385-28.63311531 67.46574645-41.25996567 87.95197547-12.61742336-20.48622763-30.84363847-61.65664163-41.23168605-87.95197547-16.91592561-42.83419739-22.00154439-83.27169836-24.09659338-106.65422994-3.49724588-30.37466902 35.40372721-85.43037509 35.40372858-85.43037648-44.66530277 35.68652341-61.69199116 76.64012745-61.69199112 76.64012745s-12.41946602 77.48144613 15.72818155 175.95815309c28.12408214 98.44607023 75.45473911 157.62117519 75.45473912 157.62117519l0.46897083-1.32914215c0.29457891 0.86017132 0.45011682 1.32914214 0.45011682 1.32914215s47.29295173-59.17274787 75.42646087-157.62117519c28.14529187-98.47670694 15.71404174-175.95815308 15.71404176-175.95815309s-17.02904409-40.95595974-61.67549426-76.64012745zM283.85652228 26.84897813c-8.7454725 4.32206906-34.58126251 149.17735289-30.04238347 184.99820449 15.71404174 123.6573515 103.15698407 204.35796153 103.27717243 204.45458312-54.21674445-27.36053241-106.56467827-55.72263423-126.52537722-72.42410698-39.92846643-33.4170839-72.35576501-77.94098997-109.02736094-191.71225716-8.86094809 10.23015254-19.37389683 223.25817333 24.49722086 264.13636414 0 0-14.13981003-58.70377843 0-73.28663538 0 0 62.63464561 84.13893957 365.95006625 147.79400721 0 0-79.26070511-36.28982243-154.89454895-74.50737183-0.03299244-0.04006234-18.66926204-29.21284751-29.62290201-59.18217487-10.98191958-29.99524988-14.85387043-63.23323044-14.85387044-63.23323046s12.96620579 32.56398249 38.79728163 68.16095425c56.34714297 77.52857839 160.57403978 128.76418001 160.57403977 128.76418002s-145.09330351-126.00455998-198.47344345-287.65793813c-10.77453524-32.58519221-21.63626644-109.10984407-29.65589446-176.30457842" fill="#15273B" p-id="47450"></path><path d="M740.14347772 26.84897813c8.7454725 4.32206906 34.57183552 149.17735289 30.04238347 184.9887775-15.72346875 123.6667785-103.17112387 204.36738715-103.28659943 204.46401011 54.21674445-27.36053241 106.55525127-55.72263423 126.51359452-72.42410698 39.92846643-33.4170839 72.37933044-77.94098997 109.0179353-191.71225716 8.8845135 10.23015254 19.38332245 223.25817333-24.46422843 264.13636414 0 0 14.10681759-58.70377843 0-73.26542568 0 0-62.64878543 84.11772986-365.97834586 147.77279751 0 0 79.27013211-36.28982243 154.91104447-74.50737183 0.01885263-0.04948933 18.66926204-29.21284751 29.6087622-59.18217487 10.97249259-29.99524988 14.84444343-63.23323044 14.84444482-63.23323046s-12.94263898 32.56398249-38.78314319 68.16095425c-56.34714297 77.52857839-160.5834654 128.76418001-160.5834654 128.76418002s145.10273052-126.00455998 198.48758328-287.65793813c10.78867505-32.58519221 21.62448234-109.10984407 29.67003425-176.30457842M283.85652228 954.77401121c-8.7454725-4.31264205-34.58126251-149.16321309-30.04238347-184.97228197 15.71404174-123.68798822 103.15698407-204.38624115 103.27717243-204.47579281-54.21674445 27.37231513-106.56467827 55.73206123-126.52537722 72.43353396-39.92846643 33.4265109-72.35576501 77.94098997-109.02736094 191.69340454-8.86094809-10.20894284-19.37389683-223.24167781 24.49722086-264.1269385 0 0-14.13981003 58.70377843 0 73.27720976 0 0 62.63464561-84.14129666 365.95006625-147.79400862 0 0-79.26070511 36.29924943-154.89454895 74.51679886-0.03299244 0.0306367-18.66926204 29.21991743-29.62290201 59.18453198-10.98191958 29.99996405-14.85387043 63.22144773-14.85387044 63.22144771s12.96620579-32.56398249 38.79728163-68.16095423c56.34714297-77.52150848 160.57403978-128.76418001 160.57403977-128.76418001s-145.09330351 126.02576969-198.47344345 287.69564471c-10.77453524 32.56633958-21.63626644 109.07920737-29.65589446 176.27158462" fill="#15273B" p-id="47451"></path><path d="M740.14347772 954.77401121c8.7454725-4.31264205 34.57183552-149.16321309 30.04238347-184.97228197-15.72346875-123.68798822-103.17112387-204.38624115-103.28659943-204.47579281 54.21674445 27.37231513 106.55525127 55.73206123 126.51359452 72.42410695 39.92846643 33.4170839 72.37933044 77.95041558 109.0179353 191.70283155 8.8845135-10.19951584 19.38332245-223.24167781-24.46422843-264.13636411 0 0 14.10681759 58.71320404 0 73.28663537 0 0-62.64878543-84.14129666-365.97834586-147.79400862 0 0 79.27013211 36.29924943 154.91104447 74.51679886 0.01885263 0.0306367 18.66926204 29.21991743 29.6087622 59.18453198 10.97249259 29.99996405 14.84444343 63.22144773 14.84444482 63.22144771s-12.94263898-32.56398249-38.78314319-68.16095423c-56.34714297-77.52150848-160.5834654-128.76418001-160.5834654-128.76418001s145.10273052 126.02576969 198.48758328 287.69564471c10.78867505 32.56633958 21.62448234 109.07920737 29.67003425 176.27158462" fill="#15273B" p-id="47452"></path></svg>